# xmcd
#
# Track frame offsets:
#	150
#	14770
#	31079
#	44857
#	59481
#	74364
#	90416
#	105007
#	120951
#	137074
#	151841
#	168036
#	181200
#
# Disc length: 2714 seconds
#
# Revision: 0
# Processed by: cddbd v1.5.1PL2 Copyright (c) Steve Scherf et al.
# Submitted via: EasyCDDAExtractor 9.0.0.1
#
DISCID=9d0a980d
DTITLE=Papa A.P. - Assesina
DYEAR=2005
DGENRE=Rap
TTITLE0=Gasolina
TTITLE1=Entre tu Y Yo
TTITLE2=Papa Macarena
TTITLE3=Viva La Musica
TTITLE4=La Colegiala
TTITLE5=Abusiva
TTITLE6=Invito A Bailar
TTITLE7=La Noche
TTITLE8=Assesina
TTITLE9=A Cabbalito
TTITLE10=La Chola Pum
TTITLE11=Nena
TTITLE12=Gasolina (Remix
EXTD=
EXTT0=
EXTT1=
EXTT2=
EXTT3=
EXTT4=
EXTT5=
EXTT6=
EXTT7=
EXTT8=
EXTT9=
EXTT10=
EXTT11=
EXTT12=
PLAYORDER=
